<?xml version="1.0" encoding="UTF-8"?>
<svg fill="none" viewBox="0 0 133 134" xmlns="http://www.w3.org/2000/svg">
<g filter="url(#a)">
<circle cx="65.5" cy="65" r="47.5" fill="#fff"/>
</g>
<path d="m71.684 41.495-7.96 4.2913-8.3254-4.2913v-5.1462h16.285v5.1462z" fill="#00C65E"/>
<path d="m63.473 93.556h17.057v-36.289l4.3163 2.4901 6.1838-10.583-11.82-8.5909c-0.6475-0.3818-1.3447-0.7802-1.6601-0.913-2.1509-0.8085-4.4187-1.2626-6.715-1.3447-0.274 1.6103-1.8676 7.4704-7.3708 7.4704s-7.0969-5.8103-7.3708-7.4704c-2.2935 0.083-4.5585 0.5371-6.7067 1.3447-0.2988 0.1328-0.9961 0.5312-1.6601 0.913l-11.812 8.5909 6.1838 10.616 4.3162-2.4901v36.256h17.057z" fill="#00C65E"/>
<path d="m55.372 36.349 8.1676 9.4375-4.4158 4.034-5.6941-11.214 1.9423-2.2577z" fill="#CCEFDB"/>
<path d="m71.715 36.349-8.1759 9.4375 4.4241 4.034 5.6941-11.214-1.9423-2.2577z" fill="#CCEFDB"/>
<path d="m65.025 45.545h-2.9799v11.214h2.9799v-11.214z" fill="#CCEFDB"/>
<path d="m44.598 58.346-2.4984 1.4443-6.1838-10.616 2.3822-1.7348 6.3 10.907z" fill="#CCEFDB"/>
<path d="m82.348 58.346 2.4984 1.4443 6.1838-10.616-2.3822-1.7348-6.3 10.907z" fill="#CCEFDB"/>
<path d="m80.539 91.298h-34.123v2.2494h34.123v-2.2494z" fill="#CCEFDB"/>
<rect x="55.373" y="36.349" width="16.336" height="2.7997" fill="#CCEFDB"/>
<path d="m88.088 84.133 6.9602-1.7367-7.0635-1.7077-1.725-6.7534-1.6652 6.7667-7.0568 1.763 6.9805 1.6821 1.8094 7.1157 1.7604-7.1297z" fill="#FFB762"/>
<path d="m50.539 49.831 3.8787-0.9176-3.9358-0.8974-0.9596-3.5691-0.9259 3.5765-3.9343 0.9282 3.8858 0.8872 1.0103 3.7567 0.9808-3.7645z" fill="#fff"/>
<defs>
<filter id="a" x="0" y=".5" width="133" height="133" color-interpolation-filters="sRGB" filterUnits="userSpaceOnUse">
<feFlood flood-opacity="0" result="BackgroundImageFix"/>
<feColorMatrix in="SourceAlpha" result="hardAlpha" values="0 0 0 0 0 0 0 0 0 0 0 0 0 0 0 0 0 0 127 0"/>
<feMorphology in="SourceAlpha" operator="dilate" radius="3" result="effect1_dropShadow_5137_18950"/>
<feOffset dx="1" dy="2"/>
<feGaussianBlur stdDeviation="8"/>
<feColorMatrix values="0 0 0 0 0.211765 0 0 0 0 0.227451 0 0 0 0 0.270588 0 0 0 0.08 0"/>
<feBlend in2="BackgroundImageFix" result="effect1_dropShadow_5137_18950"/>
<feBlend in="SourceGraphic" in2="effect1_dropShadow_5137_18950" result="shape"/>
</filter>
</defs>
</svg>
