<?xml version="1.0" encoding="UTF-8"?>
<svg fill="none" viewBox="0 0 133 134" xmlns="http://www.w3.org/2000/svg">
<g filter="url(#a)">
<circle cx="65.5" cy="65" r="47.5" fill="#fff"/>
</g>
<path d="m90.482 49.505 6.3429-1.529-6.4262-1.548-1.544-6.0444-1.5441 6.0444-6.4261 1.548 6.3428 1.529 1.6274 6.373 1.6273-6.373z" fill="#FD9558"/>
<path d="m40.219 59.439 3.8029-0.9167-3.8528-0.9281-0.9258-3.6239-0.9257 3.6239-3.8529 0.9281 3.8029 0.9167 0.9757 3.821 0.9757-3.821z" fill="#FFB762"/>
<path d="m69.816 71.038c2.5982-16.659 10.604-21.228 10.604-21.228-3.7307 6.6967-6.561 13.831-8.4214 21.228h-2.1822z" fill="#1E7836"/>
<path d="m72.912 71.038c1.6759-11.188 9.2473-9.7882 9.2473-9.7882s-3.4421-0.9665-7.0651 9.7882h-2.1822z" fill="#1E7836"/>
<path d="m72.912 71.038c1.6759-11.188 9.2473-9.7882 9.2473-9.7882s-5.2144-0.9665-8.8313 9.7882h-0.416z" fill="#1E7836"/>
<path d="m56.288 71.184c-1.3442-11.235-8.9519-10.04-8.9519-10.04s3.4663-0.8904 6.7637 9.9581l2.1882 0.082z" fill="#1E7836"/>
<path d="m56.408 71.078c-1.6156-11.171-9.1931-9.8352-9.1931-9.8352s5.2084-0.9548 8.7711 9.8352h0.422z" fill="#1E7836"/>
<path d="m58.892 71.096c-2.4534-16.677-10.423-21.31-10.423-21.31 3.673 6.7258 6.4425 13.882 8.2405 21.293l2.1822 0.0176z" fill="#1E7836"/>
<path d="m58.892 71.097c-2.4535-16.677-9.5186-20.648-9.5186-20.648s6.1428 4.8912 8.4396 20.631l1.079 0.0176z" fill="#1E7836"/>
<path d="m62.217 71.038c0.6028-16.923-5.9378-35.808-5.9378-35.808s0.3496 23.847 3.7676 35.808h2.1702z" fill="#1E7836"/>
<path d="m60.714 71.038c-1.4287-15.523-4.4187-35.808-4.4187-35.808s0.3376 23.847 3.7556 35.808h0.6631z" fill="#1E7836"/>
<path d="m66.835 71.038c-0.3978-16.952 6.4141-35.732 6.4141-35.732s-0.6511 23.823-4.2198 35.732h-2.1943z" fill="#1E7836"/>
<path d="m67.715 71.038c0.7475-17.573 5.5339-34.777 5.5339-34.777s-0.651 22.845-4.2197 34.783l-1.3142-0.0058z" fill="#1E7836"/>
<path d="m63.329 71.038c-0.4039-16.935 0.4521-39.616 0.4521-39.616s5.3109 27.689 1.7361 39.616h-2.1882z" fill="#1E7836"/>
<path d="m73.076 91.71h-19.941l-3.0623-22.06h25.68l-2.6766 22.06z" fill="#FD9558"/>
<path d="m78.162 74.191-2.3791 20.41h-17.702l-2.7239-20.41h22.805z" fill="#fff" stroke="#FD9558"/>
<path d="m88.218 99.466h-49.22l-3.195-13.836h55.478l-3.0623 13.836z" fill="#00C65E"/>
<path d="m88.46 99.741h-49.709l-3.3276-14.41h56.231l-3.1949 14.41zm-49.226-0.5858h48.738l2.9357-13.256h-54.73l3.0563 13.256z" fill="#00C65E"/>
<path d="m84.265 87.076-2.351-0.5272c1.4588-6.1389 3.2431-10.456 5.2927-12.828 1.7301-2.0092 3.1468-2.0209 3.5386-1.9741 0.3702 0.026 0.7293 0.1346 1.0493 0.3175 0.3199 0.1829 0.5921 0.4351 0.7953 0.7369 1.3202 1.8394 0.8922 6.4435-1.2659 13.637l-2.3148-0.6561c2.6765-8.9271 1.9049-11.499 1.5492-11.715-0.3436 0.0937-3.4662 1.1071-6.2934 13.01z" fill="#00C65E"/>
<path d="m35.896 86.79c-2.6585-6.9121-3.4241-11.423-2.2727-13.402 0.1843-0.3288 0.4427-0.6128 0.7558-0.8309 0.3132-0.2181 0.6731-0.3646 1.0527-0.4285 0.8018-0.1874 5.3169-0.4335 9.8561 13.83l-2.3027 0.6912c-2.0255-6.3615-3.9124-9.3724-5.1421-10.761-1.1213-1.2829-1.8567-1.4293-2.0074-1.4469-0.0422 0-0.0663 0.041-0.1025 0.0996-0.5425 0.9372-0.2351 4.4929 2.4113 11.422l-2.2485 0.826zm0-12.372h-0.0483 0.0483z" fill="#00C65E"/>
<path d="m44.222 99.758h0.7174l-2.339-14.439h-0.7113l2.3329 14.439z" fill="#FFB762"/>
<path d="m40.724 99.776 1.3142 0.0058-2.333-14.439-1.3201-0.0058 2.3389 14.439z" fill="#FFB762"/>
<path d="m48.569 99.776 0.4461 0.0058-2.3389-14.439-0.4401-0.0058 2.3329 14.439z" fill="#FFB762"/>
<path d="m78.4 99.764h-1.3142l2.4113-14.428h1.3142l-2.4113 14.428z" fill="#FFB762"/>
<path d="m85.205 99.764h-2.5198l2.4113-14.428h2.5198l-2.4113 14.428z" fill="#FFB762"/>
<defs>
<filter id="a" x="0" y=".5" width="133" height="133" color-interpolation-filters="sRGB" filterUnits="userSpaceOnUse">
<feFlood flood-opacity="0" result="BackgroundImageFix"/>
<feColorMatrix in="SourceAlpha" result="hardAlpha" values="0 0 0 0 0 0 0 0 0 0 0 0 0 0 0 0 0 0 127 0"/>
<feMorphology in="SourceAlpha" operator="dilate" radius="3" result="effect1_dropShadow_5137_20202"/>
<feOffset dx="1" dy="2"/>
<feGaussianBlur stdDeviation="8"/>
<feColorMatrix values="0 0 0 0 0.211765 0 0 0 0 0.227451 0 0 0 0 0.270588 0 0 0 0.08 0"/>
<feBlend in2="BackgroundImageFix" result="effect1_dropShadow_5137_20202"/>
<feBlend in="SourceGraphic" in2="effect1_dropShadow_5137_20202" result="shape"/>
</filter>
</defs>
</svg>
