<svg width="26" height="25" viewBox="0 0 26 25" fill="none" xmlns="http://www.w3.org/2000/svg">
    <rect x="8.0458" y="3.39883" width="10.386" height="18.2033" rx="0.65" fill="white" stroke="#363A45" strokeWidth="0.7" />
    <path d="M9.77529 15.3435C9.77529 13.4324 11.3265 11.8812 13.2376 11.8812C15.1486 11.8812 16.6998 13.4324 16.6998 15.3435C16.6998 17.2546 15.1486 18.8058 13.2376 18.8058C11.3265 18.8058 9.77529 17.2546 9.77529 15.3435Z" fill="white" stroke="#363A45" strokeWidth="0.7" />
    <path d="M12.0194 15.3448C12.0194 14.6718 12.5658 14.1254 13.2388 14.1254C13.9118 14.1254 14.4582 14.6718 14.4582 15.3448C14.4582 16.0178 13.9118 16.5642 13.2388 16.5642C12.5658 16.5642 12.0194 16.0178 12.0194 15.3448Z" fill="#00C65E" stroke="#00C65E" strokeWidth="0.7" />
    <path d="M12.0194 8.12994C12.0194 7.45693 12.5658 6.91055 13.2388 6.91055C13.9118 6.91055 14.4582 7.45693 14.4582 8.12994C14.4582 8.80294 13.9118 9.34933 13.2388 9.34933C12.5658 9.34933 12.0194 8.80294 12.0194 8.12994Z" fill="#00C65E" stroke="#00C65E" strokeWidth="0.7" />
</svg>