<svg width="26" height="25" viewBox="0 0 26 25" fill="none" xmlns="http://www.w3.org/2000/svg">
    <rect x="4.15078" y="6.85977" width="18.1756" height="11.277" rx="0.65" fill="white" stroke="#363A45" strokeWidth="0.7" />
    <path d="M5.81387 13.004C5.81387 11.2954 7.20071 9.90859 8.90927 9.90859C10.6178 9.90859 12.0047 11.2954 12.0047 13.004C12.0047 14.7126 10.6178 16.0994 8.90927 16.0994C7.20071 16.0994 5.81387 14.7126 5.81387 13.004Z" fill="white" stroke="#363A45" strokeWidth="0.7" />
    <path d="M14.473 13.004C14.473 11.2954 15.8599 9.90859 17.5684 9.90859C19.277 9.90859 20.6638 11.2954 20.6638 13.004C20.6638 14.7126 19.277 16.0994 17.5684 16.0994C15.8599 16.0994 14.473 14.7126 14.473 13.004Z" fill="white" stroke="#363A45" strokeWidth="0.7" />
    <path d="M7.14486 13.0036C7.14486 12.0299 7.93521 11.2396 8.90888 11.2396C9.88255 11.2396 10.6729 12.0299 10.6729 13.0036C10.6729 13.9773 9.88255 14.7676 8.90888 14.7676C7.93521 14.7676 7.14486 13.9773 7.14486 13.0036Z" fill="#00C65E" stroke="#00C65E" strokeWidth="0.479178" />
    <path d="M15.804 13.0036C15.804 12.0299 16.5944 11.2396 17.5681 11.2396C18.5417 11.2396 19.3321 12.0299 19.3321 13.0036C19.3321 13.9773 18.5417 14.7676 17.5681 14.7676C16.5944 14.7676 15.804 13.9773 15.804 13.0036Z" fill="#00C65E" stroke="#00C65E" strokeWidth="0.479178" />
    <path d="M20.1927 8.4945C20.1927 8.30211 20.349 8.14584 20.5414 8.14584C20.7338 8.14584 20.89 8.30211 20.89 8.4945C20.89 8.6869 20.7338 8.84317 20.5414 8.84317C20.349 8.84317 20.1927 8.6869 20.1927 8.4945Z" fill="#00C65E" stroke="#00C65E" strokeWidth="0.479178" />
    <path d="M18.2581 8.4945C18.2581 8.30211 18.4144 8.14584 18.6068 8.14584C18.7992 8.14584 18.9555 8.30211 18.9555 8.4945C18.9555 8.6869 18.7992 8.84317 18.6068 8.84317C18.4144 8.84317 18.2581 8.6869 18.2581 8.4945Z" fill="#00C65E" stroke="#00C65E" strokeWidth="0.479178" />
</svg>