<svg width="26" height="25" viewBox="0 0 26 25" fill="none" xmlns="http://www.w3.org/2000/svg">
    <path d="M3.58877 5.24023C3.58877 4.88125 3.87978 4.59023 4.23877 4.59023H14.3913C14.6376 4.59023 14.8808 4.64538 15.103 4.75162L17.6635 5.97577V9.12912L15.103 10.3533C14.8808 10.4595 14.6376 10.5147 14.3913 10.5147H4.23877C3.87978 10.5147 3.58877 10.2236 3.58877 9.86466V5.24023Z" fill="white" stroke="#363A45" strokeWidth="0.7" />
    <path d="M5.0083 6.15234H9.00083" stroke="#00C65E" strokeWidth="0.7" strokeLinecap="round" />
    <path d="M5.0083 7.83008H9.00083" stroke="#00C65E" strokeWidth="0.7" strokeLinecap="round" />
    <path d="M19.5673 9.03697V6.02987L20.4027 6.03031C20.6139 6.03042 20.8119 6.13313 20.9336 6.30572L21.5357 7.15954C21.6941 7.38416 21.6941 7.68412 21.5357 7.90873L20.934 8.76201C20.8121 8.93479 20.6139 9.03752 20.4024 9.03741L19.5673 9.03697Z" fill="white" stroke="#363A45" strokeWidth="0.7" />
    <path d="M23.2385 7.80312C23.4318 7.80312 23.5885 7.64642 23.5885 7.45312C23.5885 7.25983 23.4318 7.10313 23.2385 7.10313V7.80312ZM21.7979 7.80312H23.2385V7.10313H21.7979V7.80312Z" fill="#363A45" />
    <path d="M6.06115 16.2L6.73525 10.5395H10.5924L9.91827 16.2H6.06115Z" fill="white" stroke="#363A45" strokeWidth="0.7" />
    <rect x="4.71621" y="16.3832" width="6.47101" height="3.78183" rx="0.65" fill="white" stroke="#363A45" strokeWidth="0.7" />
    <rect x="18.0137" y="5.67969" width="2.00059" height="3.708" fill="#00C65E" />
</svg>