<svg width="26" height="25" viewBox="0 0 26 25" fill="none" xmlns="http://www.w3.org/2000/svg">
    <path d="M13.3786 8.58788C13.6148 8.58788 13.8708 8.50932 14.1113 8.42139C14.2477 8.37147 14.4054 8.308 14.568 8.24256C14.6874 8.19451 14.8094 8.14539 14.9276 8.09979C15.5175 7.87224 16.1911 7.65859 16.9425 7.65859C18.4416 7.65859 19.4089 8.26413 19.9627 8.77605C20.0693 8.87462 20.1079 9.00369 20.0817 9.16404C20.0539 9.33395 19.9521 9.52404 19.7947 9.67511C19.1358 10.3073 18.3466 11.4191 18.3466 13.0982C18.3466 15.1504 19.5001 16.3623 20.3448 16.9706C20.6981 17.225 20.8362 17.6305 20.7059 17.9264C20.3772 18.6728 19.8443 19.7441 19.1715 20.6231C18.4831 21.5227 17.7255 22.1199 16.9634 22.1199C16.4528 22.1199 15.9927 21.9491 15.4553 21.7484L15.4535 21.7477C14.9324 21.5531 14.342 21.3325 13.6553 21.3325C12.9604 21.3325 12.2833 21.5578 11.7154 21.7615C11.6504 21.7848 11.5871 21.8077 11.5254 21.8301C11.3091 21.9084 11.1118 21.9799 10.9252 22.037C10.6847 22.1105 10.4946 22.1493 10.3446 22.1493C9.88702 22.1493 9.34828 21.8977 8.77535 21.3887C8.20878 20.8854 7.64611 20.1628 7.14694 19.3037C6.14673 17.5824 5.43643 15.3747 5.43643 13.428C5.43643 9.60672 7.79933 7.71431 9.90085 7.71431C10.5925 7.71431 11.2162 7.91353 11.7895 8.12876C11.8768 8.16157 11.965 8.19554 12.0528 8.22932C12.2436 8.30282 12.4321 8.37543 12.6049 8.43328C12.8587 8.51823 13.1235 8.58788 13.3786 8.58788Z" fill="white" stroke="#363A45" strokeWidth="0.7" />
    <path d="M16.3869 2.6436C15.7385 2.82986 14.8278 3.25771 14.0822 4.24043C13.4251 5.10648 13.2316 5.90205 13.188 6.43257C13.1549 6.83542 13.4766 7.14259 13.8766 7.08457C14.467 6.99894 15.3618 6.69153 16.1895 5.697C16.9025 4.84014 17.145 3.96546 17.2183 3.3481C17.2761 2.86101 16.8583 2.50817 16.3869 2.6436Z" fill="#00C65E" />
</svg>