
<svg width="26" height="25" viewBox="0 0 26 25" fill="none" xmlns="http://www.w3.org/2000/svg">
<path d="M5.94795 6.26992H20.5303C21.1197 6.26992 21.5975 6.74772 21.5975 7.33711V17.1676C21.5975 17.757 21.1197 18.2348 20.5303 18.2348H5.94795C5.35856 18.2348 4.88076 17.757 4.88076 17.1676V7.33711C4.88076 6.74772 5.35856 6.26992 5.94795 6.26992Z" fill="white" stroke="#363A45" strokeWidth="0.7" />
<path d="M3.31648 17.9121H23.1612C23.1818 17.9121 23.2015 17.9203 23.216 17.9348C23.2306 17.9494 23.2388 17.9691 23.2388 17.9897V18.6391C23.2388 18.7561 23.1923 18.8683 23.1096 18.951C23.0269 19.0337 22.9147 19.0802 22.7977 19.0802H3.67996C3.56298 19.0802 3.45079 19.0337 3.36807 18.951C3.28535 18.8683 3.23888 18.7561 3.23888 18.6391V17.9938C3.23832 17.9833 3.23992 17.9727 3.24357 17.9628C3.24722 17.953 3.25285 17.9439 3.26011 17.9363C3.26737 17.9286 3.27611 17.9225 3.28581 17.9184C3.2955 17.9142 3.30593 17.9121 3.31648 17.9121Z" fill="#363A45" />
<path d="M17.0619 7.4082H6.89778C6.78122 7.41667 6.66759 7.44875 6.56381 7.50249C6.46003 7.55624 6.36826 7.63052 6.29408 7.72083C6.21989 7.81114 6.16485 7.91559 6.13228 8.02783C6.09972 8.14007 6.09032 8.25776 6.10465 8.37375V16.1326C6.09032 16.2486 6.09972 16.3663 6.13228 16.4786C6.16485 16.5908 6.21989 16.6952 6.29408 16.7856C6.36826 16.8759 6.46003 16.9501 6.56381 17.0039C6.66759 17.0576 6.78122 17.0897 6.89778 17.0982C10.26 17.0637 17.0619 11.1411 17.0619 7.4082Z" fill="#00C65E" />
</svg>