
<svg width="18" height="19" viewBox="0 0 18 19" fill="none" xmlns="http://www.w3.org/2000/svg">
    <path d="M14.7772 13.5635L5.8575 4.12848C5.8575 4.04077 5.77526 3.76665 5.72592 3.44868C5.69976 2.89206 5.48959 2.35986 5.12835 1.93557C4.48693 1.32155 3.59331 0.882968 2.90254 1.07485L3.74133 1.96298C3.86542 2.07601 3.96513 2.21318 4.03437 2.36609C4.1036 2.519 4.1409 2.68442 4.14398 2.85225C4.14706 3.02007 4.11585 3.18676 4.05228 3.3421C3.9887 3.49744 3.89409 3.63818 3.77423 3.75569C3.64992 3.86471 3.50453 3.947 3.34707 3.99747C3.18962 4.04793 3.02348 4.06548 2.85896 4.04903C2.69444 4.03258 2.53506 3.98247 2.39071 3.90183C2.24637 3.82119 2.12015 3.71173 2.0199 3.58025L1.1811 2.69212C0.923437 3.37193 1.33461 4.28747 1.90477 4.96179C2.3109 5.35366 2.83513 5.60036 3.39595 5.66353C3.77971 5.75124 4.10317 5.84444 4.10317 5.84444L12.9845 15.2466C12.9038 15.614 12.9146 15.9956 13.0159 16.3579C13.1172 16.7202 13.306 17.0521 13.5656 17.3244C13.7661 17.5382 14.0068 17.7104 14.2738 17.8312C14.5409 17.9521 14.8291 18.0191 15.1221 18.0285C15.4151 18.0379 15.7071 17.9895 15.9813 17.8861C16.2556 17.7827 16.5068 17.6263 16.7207 17.4258C16.9345 17.2253 17.1067 16.9846 17.2275 16.7175C17.3484 16.4505 17.4154 16.1622 17.4248 15.8693C17.4342 15.5763 17.3858 15.2843 17.2824 15.01C17.179 14.7358 17.0226 14.4845 16.8221 14.2707C16.5647 13.9951 16.2438 13.7866 15.8874 13.6633C15.531 13.5401 15.1499 13.5058 14.7772 13.5635Z" fill="white" stroke="#00C65E" strokeWidth="0.7" strokeLinecap="round" strokeLinejoin="round" />
    <path d="M16.6966 1.90154L16.2306 1.43555L16.121 1.54519L13.7033 3.35983L13.9938 3.65039L9.56961 8.09653L8.676 7.2084L8.12777 7.75663L8.35255 8.30486L7.80432 8.85309L1.57643 15.1248C1.31765 15.3848 1.17236 15.7366 1.17236 16.1034C1.17236 16.4702 1.31765 16.8221 1.57643 17.082L1.7409 17.252C1.86972 17.3809 2.02269 17.4832 2.19108 17.553C2.35946 17.6228 2.53995 17.6588 2.72223 17.6588C2.90451 17.6588 3.085 17.6228 3.25339 17.553C3.42177 17.4832 3.57475 17.3809 3.70356 17.252L10.4961 10.4978L11.0444 10.7225L11.5926 10.1743L10.7044 9.28619L15.1944 4.84005L15.4905 5.13061L17.3216 2.72937L17.4257 2.61972L16.9543 2.14824L16.6966 1.90154Z" fill="white" stroke="#00C65E" strokeWidth="0.7" strokeLinecap="round" strokeLinejoin="round" />
    <path d="M9.16625 9.26529L8.8574 8.95312L8.70796 9.10589L8.78766 9.30182L8.5884 9.50108L4.99319 13.1096C4.94801 13.1543 4.91214 13.2076 4.88766 13.2663C4.86319 13.325 4.85059 13.388 4.85059 13.4516C4.85059 13.5152 4.86319 13.5782 4.88766 13.6369C4.91214 13.6956 4.94801 13.7489 4.99319 13.7937L5.05297 13.8535C5.09774 13.8987 5.15102 13.9345 5.20973 13.959C5.26844 13.9835 5.33142 13.9961 5.39503 13.9961C5.45863 13.9961 5.52161 13.9835 5.58032 13.959C5.63903 13.9345 5.69231 13.8987 5.73708 13.8535L9.54151 10.059L9.73413 10.1387L9.88357 9.98594L9.5714 9.67377L9.16625 9.26529Z" fill="#00C65E" />
    <path d="M16.0981 16.3812C15.9806 16.5677 15.8103 16.7149 15.6089 16.8041C15.4074 16.8933 15.1839 16.9205 14.9669 16.8821C14.75 16.8437 14.5493 16.7416 14.3907 16.5887C14.232 16.4358 14.1225 16.2391 14.0761 16.0237C14.0297 15.8083 14.0486 15.584 14.1303 15.3794C14.2119 15.1747 14.3527 14.9991 14.5347 14.8748C14.7166 14.7505 14.9315 14.6833 15.1518 14.6817C15.3722 14.6801 15.588 14.7441 15.7717 14.8657C15.8928 14.9437 15.9972 15.0448 16.0791 15.1632C16.1611 15.2816 16.2188 15.415 16.2491 15.5558C16.2795 15.6966 16.2817 15.8419 16.2558 15.9835C16.2299 16.1252 16.1763 16.2603 16.0981 16.3812Z" fill="#00C65E" />
</svg>